# Blender v3.0.1 OBJ File: '2022-March-05_Sci-Fi.blend'
# www.blender.org
o Cube.003_Cube.057
v 0.060217 0.869109 -0.105255
v 0.085885 0.899242 -0.073361
v -0.085885 0.899242 -0.073361
v -0.060217 0.869109 -0.105255
v 0.085885 0.899242 -3.101048
v 0.060217 0.869109 -3.069154
v -0.060217 0.869109 -3.069154
v -0.085885 0.899242 -3.101048
v 0.085885 1.048575 0.084697
v 0.060217 1.078708 0.116591
v -0.060217 1.078708 0.116591
v -0.085885 1.048575 0.084697
v 0.060217 1.078708 -3.291000
v 0.085885 1.048575 -3.259106
v -0.085885 1.048575 -3.259106
v -0.060217 1.078708 -3.291000
v 0.060217 -0.006157 -0.105255
v 0.085885 -0.006157 -0.073383
v -0.085885 -0.006157 -0.073383
v -0.060217 -0.006157 -0.105255
v -0.060217 -0.006157 0.116591
v -0.085885 -0.006157 0.084719
v 0.085885 -0.006157 0.084719
v 0.060217 -0.006157 0.116591
v 0.085885 -0.006157 -3.101026
v 0.060217 -0.006157 -3.069154
v -0.060217 -0.006157 -3.069154
v -0.085885 -0.006157 -3.101026
v -0.085885 -0.006157 -3.259128
v -0.060217 -0.006157 -3.291000
v 0.060217 -0.006157 -3.291000
v 0.085885 -0.006157 -3.259128
vt 0.587641 0.000000
vt 0.587641 0.000000
vt 0.412359 0.000000
vt 0.412359 0.000000
vt 0.160941 0.750000
vt 0.339059 0.750000
vt 0.339083 0.750000
vt 0.160917 0.750000
vt 0.839059 0.750000
vt 0.660941 0.750000
vt 0.660941 0.750000
vt 0.839059 0.750000
vt 0.412359 0.750000
vt 0.412359 0.750000
vt 0.587641 0.750000
vt 0.587641 0.750000
vt 0.160941 0.750000
vt 0.339059 0.750000
vt 0.839083 0.750000
vt 0.660917 0.750000
vt 0.412359 0.000000
vt 0.587641 0.000000
vt 0.587641 0.750000
vt 0.412359 0.750000
vt 0.160917 0.750000
vt 0.339083 0.750000
vt 0.660917 0.750000
vt 0.839083 0.750000
vt 0.587641 0.750000
vt 0.412359 0.750000
vt 0.875000 0.750000
vt 0.875000 0.750000
vt 0.125000 0.750000
vt 0.125000 0.750000
vt 0.875000 0.750000
vt 0.875000 0.750000
vt 0.125000 0.750000
vt 0.125000 0.750000
vt 0.412359 0.000000
vt 0.587641 0.000000
vn 0.0000 0.0000 1.0000
vn 1.0000 -0.0000 -0.0000
vn -1.0000 0.0000 0.0000
vn 0.0000 0.0000 -1.0000
vn 0.0000 -1.0000 0.0000
vn 0.0000 1.0000 0.0000
vn -0.7789 0.0000 -0.6271
vn -0.7789 0.0000 0.6271
vn 0.7789 0.0000 0.6271
vn 0.7789 0.0000 -0.6271
vn -0.7612 0.6485 0.0000
vn 0.7612 -0.6485 0.0000
vn -0.7612 -0.6485 0.0000
vn 0.7612 0.6485 0.0000
s off
f 7/1/1 27/2/1 26/3/1 6/4/1
f 2/5/2 9/6/2 23/7/2 18/8/2
f 3/9/3 12/10/3 15/11/3 8/12/3
f 13/13/4 31/14/4 30/15/4 16/16/4
f 2/5/2 5/17/2 14/18/2 9/6/2
f 12/10/3 3/9/3 19/19/3 22/20/3
f 6/4/5 1/21/5 4/22/5 7/1/5
f 11/23/6 10/24/6 13/13/6 16/16/6
f 5/17/2 25/25/2 32/26/2 14/18/2
f 15/11/3 29/27/3 28/28/3 8/12/3
f 10/24/1 11/23/1 21/29/1 24/30/1
f 4/31/7 20/32/7 19/19/7 3/9/7
f 21/29/8 11/23/8 12/10/8 22/20/8
f 23/7/9 9/6/9 10/24/9 24/30/9
f 2/5/10 18/8/10 17/33/10 1/34/10
f 8/12/8 28/28/8 27/35/8 7/36/8
f 29/27/7 15/11/7 16/16/7 30/15/7
f 31/14/10 13/13/10 14/18/10 32/26/10
f 6/37/9 26/38/9 25/25/9 5/17/9
f 11/23/11 16/16/11 15/11/11 12/10/11
f 1/34/12 6/37/12 5/17/12 2/5/12
f 7/36/13 4/31/13 3/9/13 8/12/13
f 13/13/14 10/24/14 9/6/14 14/18/14
f 4/22/4 1/21/4 17/39/4 20/40/4
